<svg version="1.1" id="Layer_1" xmlns="http://www.w3.org/2000/svg" xmlns:xlink="http://www.w3.org/1999/xlink" x="0px" y="0px"
	 width="100%" viewBox="0 0 384 256" enable-background="new 0 0 384 256" xml:space="preserve">
<path fill="#000000" opacity="1.000000" stroke="none" 
	d="
M92.030792,111.000076 
	C92.026825,136.496628 91.948006,161.493637 92.091614,186.489365 
	C92.115707,190.684372 91.064995,192.558884 86.505539,192.415237 
	C82.356323,192.284531 79.687782,192.116440 79.713318,186.628403 
	C79.901749,146.134735 79.881424,105.639252 79.665535,65.145737 
	C79.639984,60.352196 82.232864,59.852036 85.663139,59.095589 
	C89.065971,58.345196 91.405800,58.268578 93.223068,62.240093 
	C109.541397,97.902580 130.289627,130.757614 156.299652,160.188766 
	C162.824677,167.572037 170.014145,174.272583 178.157440,179.885757 
	C190.225800,188.204559 196.827988,187.830963 207.349442,177.746613 
	C215.855698,169.593750 222.028244,159.667206 227.668686,149.431122 
	C242.225967,123.013008 252.362015,94.891693 259.641846,65.688766 
	C261.205292,59.417065 264.972992,57.863514 270.668976,61.152222 
	C273.138947,62.578327 272.020813,64.549225 271.579742,66.431030 
	C266.553925,87.873657 259.612671,108.677078 250.935654,128.920288 
	C243.959122,145.196350 235.980728,160.900162 225.426926,175.193634 
	C220.949417,181.257706 215.817963,186.702805 209.819794,191.281387 
	C200.094040,198.705307 189.666260,199.413376 178.861786,194.006165 
	C164.386826,186.762024 153.448318,175.244064 143.089981,163.247681 
	C124.183861,141.351822 108.322830,117.329750 94.562431,91.904999 
	C94.107895,91.065163 93.831055,90.036407 92.030624,89.629524 
	C92.030624,96.687683 92.030624,103.593895 92.030792,111.000076 
z"/>
</svg>